{"title":"Oz the Great and Powerful (2013) TS x264 AAC - SSDD","uid":8245116,"size":577680071,"categoryP":"video","categoryS":"movies","magnet":"?xt=urn:btih:c614a0384ab7f8f057444bbc282e872d30706269&amp;dn=Oz+the+Great+and+Powerful+%282013%29+TS+x264+AAC+-+SSDD&amp;tr=udp%3A%2F%2Ftracker.openbittorrent.com%3A80&amp;tr=udp%3A%2F%2Fopen.demonii.com%3A1337&amp;tr=udp%3A%2F%2Ftracker.coppersurfer.tk%3A6969&amp;tr=udp%3A%2F%2Fexodus.desync.com%3A6969","seeders":2,"leechers":0,"uploader":"tykoon123","files":-1,"time":1363038564,"description":"Poster: &lt;a href=&quot;\nhttp://imgr.us/images/l0nkouu4jedjdpjbpp0.jpg&quot; rel=&quot;nofollow&quot; target=&quot;_NEW&quot;&gt;\nhttp://imgr.us/images/l0nkouu4jedjdpjbpp0.jpg&lt;/a&gt;\n\nInfo:\n\nIMDB Link - http://www.imdb.com/title/tt1623205/\n\nSource - Oz the Great and Powerful 2013 TS XviD MP3 - MiNiSTRY (Thumbs Up + Respect)\n\nGeneral\nComplete name : Oz the Great and Powerful 2013 TS x264-SSDD.mp4\nFormat : MPEG-4\nFormat profile : Base Media\nCodec ID : isom\nFile size : 550 MiB\nDuration : 2h 4mn\nOverall bit rate mode : Variable\nOverall bit rate : 620 Kbps\n\nVideo\nID : 1\nFormat : AVC\nFormat/Info : Advanced Video Codec\nFormat profile : &lt;a class=&quot;__cf_email__&quot; href=&quot;/cdn-cgi/l/email-protection&quot; data-cfemail=&quot;9fd7f6f8f7dfd3abb1ae&quot;&gt;[email&amp;#160;protected]&lt;/a&gt;&lt;script cf-hash='f9e31' type=&quot;text/javascript&quot;&gt;\n/* &lt;![CDATA[ */!function(){try{var t=&quot;currentScript&quot;in document?document.currentScript:function(){for(var t=document.getElementsByTagName(&quot;script&quot;),e=t.length;e--;)if(t[e].getAttribute(&quot;cf-hash&quot;))return t[e]}();if(t&amp;&amp;t.previousSibling){var e,r,n,i,c=t.previousSibling,a=c.getAttribute(&quot;data-cfemail&quot;);if(a){for(e=&quot;&quot;,r=parseInt(a.substr(0,2),16),n=2;a.length-n;n+=2)i=parseInt(a.substr(n,2),16)^r,e+=String.fromCharCode(i);e=document.createTextNode(e),c.parentNode.replaceChild(e,c)}}}catch(u){}}();/* ]]&gt; */&lt;/script&gt;\nFormat settings, CABAC : Yes\nFormat settings, ReFrames : 4 frames\nCodec ID : avc1\nCodec ID/Info : Advanced Video Coding\nDuration : 2h 4mn\nBit rate : 566 Kbps\nMaximum bit rate : 2 305 Kbps\nWidth : 704 pixels\nHeight : 272 pixels\nDisplay aspect ratio : 2.588\nFrame rate mode : Constant\nFrame rate : 25.000 fps\nColor space : YUV\nChroma subsampling : 4:2:0\nBit depth : 8 bits\nScan type : Progressive\nBits/(Pixel*Frame) : 0.118\nStream size : 503 MiB (91%)\nWriting library : x264 core 129 r2245 bc13772\n\nAudio\nID : 2\nFormat : AAC\nFormat/Info : Advanced Audio Codec\nFormat profile : LC\nCodec ID : 40\nDuration : 2h 4mn\nBit rate mode : Variable\nBit rate : 48.0 Kbps\nMaximum bit rate : 55.2 Kbps\nChannel(s) : 2 channels\nChannel positions : Front: L R\nSampling rate : 48.0 KHz\nCompression mode : Lossy\nStream size : 44.4 MiB (8%)\n\n\nScreens: &lt;a href=&quot;\nhttp://imgr.us/images/lgi5j931oqxeyltjrvx.png&quot; rel=&quot;nofollow&quot; target=&quot;_NEW&quot;&gt;\nhttp://imgr.us/images/lgi5j931oqxeyltjrvx.png&lt;/a&gt; &lt;a href=&quot;\nhttp://imgr.us/images/ttlf763k1r6hh7wxrq.png&quot; rel=&quot;nofollow&quot; target=&quot;_NEW&quot;&gt;\nhttp://imgr.us/images/ttlf763k1r6hh7wxrq.png&lt;/a&gt; &lt;a href=&quot;\nhttp://imgr.us/images/im6ce286lb2iq4xkyknh.png&quot; rel=&quot;nofollow&quot; target=&quot;_NEW&quot;&gt;\nhttp://imgr.us/images/im6ce286lb2iq4xkyknh.png&lt;/a&gt; &lt;a href=&quot;\nhttp://imgr.us/images/bq30hc23itpajfofpi.png&quot; rel=&quot;nofollow&quot; target=&quot;_NEW&quot;&gt;\nhttp://imgr.us/images/bq30hc23itpajfofpi.png&lt;/a&gt;\n\n\n\n","torrent":{"xt":"urn:btih:c614a0384ab7f8f057444bbc282e872d30706269","amp;dn":"Oz+the+Great+and+Powerful+%282013%29+TS+x264+AAC+-+SSDD","amp;tr":["udp%3A%2F%2Ftracker.openbittorrent.com%3A80","udp%3A%2F%2Fopen.demonii.com%3A1337","udp%3A%2F%2Ftracker.coppersurfer.tk%3A6969","udp%3A%2F%2Fexodus.desync.com%3A6969"],"infoHash":"c614a0384ab7f8f057444bbc282e872d30706269","infoHashBuffer":{"type":"Buffer","data":[198,20,160,56,74,183,248,240,87,68,75,188,40,46,135,45,48,112,98,105]},"announce":[],"urlList":[]}}